<svg version="1.2" xmlns="http://www.w3.org/2000/svg" viewBox="0 0 1568 2144" width="256" height="256">
	<title>f72192f9f8835bfaab917c9dc0ec37af</title>
	<style>
		.s0 { opacity: 1;fill: #2b2a2b } 
		.s1 { opacity: 1;fill: #b482ff } 
		.s2 { opacity: 1;fill: #e682ff } 
		.s3 { opacity: 1;fill: #fdfdfd } 
	</style>
	<g id="Background">
		<path id="Path 0" class="s0" d="m1111 124l52 3 58 13 54 22 45 28 46 42 33 44 18 33 20 61 7 54v14l-8 10v7l8 50v960l-6 46-10 39-19 49-22 40-25 35-30 33-47 39-39 24-62 26-74 16-228 1-16-6-9-9-4-9v-1607l5-11 8-8 11-5 126-2 7-2 9-10 24-10 35-8zm-685 207h51l31 5 21 8 14 17 6 1h134l22 4 24 10 12 9 14 18 5 14 1 1532-4 25-16 23-22 14-28 8h-219l-55-8-54-16-36-16-46-28-44-37-27-29-31-43-20-37-19-49-11-44-5-40v-961l4-40 3-6v-5l-7-9v-32l5-34 14-48 23-48 33-46 32-32 39-29 50-26 53-17z"/>
		<path id="Path 1" class="s1" d="m882 225l172-1 38 3 56 14 55 25 54 38 32 32 20 25 25 41 16 36 13 44 5 29 3 37 4 890-2 43-7 38-19 57-21 41-34 47-38 38-41 30-44 23-61 20-57 9-169-2z"/>
		<path id="Path 2" class="s2" d="m502 1989l-54-11-45-15-50-26-42-32-37-38-32-45-26-53-15-50-8-68 4-877 3-57 9-45 11-33 17-37 19-31 22-28 30-30 55-40 51-24 61-16 45-4 167 1v1550l-1 8-4 1z"/>
		<path id="Path 3" class="s3" d="m882 225l1-39 216 1 60 11 64 24 42 25 30 23 26 25 30 36 26 43 16 36 13 43 7 38 2 947-3 47-11 51-19 50-34 57-45 50-35 28-58 33-47 17-48 10-64 3 57-9 61-20 44-23 41-30 38-38 34-47 21-41 19-57 7-38 2-43-4-890-3-37-5-29-13-44-16-36-25-41-20-25-32-32-54-38-55-25-56-14-38-3zm-380 1764l-55-3-51-12-56-23-51-32-42-38-39-50-29-56-15-45-10-60 1-970 9-48 14-43 17-36 21-34 31-38 26-25 31-24 35-21 69-27 44-9 35-3h198l2 38-167-1-45 4-61 16-51 24-55 40-30 30-22 28-19 31-17 37-11 33-9 45-3 57-4 877 8 68 15 50 26 53 32 45 37 38 42 32 50 26 45 15z"/>
		<path id="Path 4" class="s0" d="m975 251l13 3 5 7v29l32 2 8 10v8l-9 9-30 1-1 30-5 7-7 3-11-2-7-9v-29l-31-1-7-6-2-9 8-12 32-2v-27l5-9zm137 192l21 2 21 10 12 12 8 14 5 27-5 20-7 13-23 19-18 6h-19l-16-5-14-9-10-11-10-22-2-9 2-21 6-15 13-16 17-11zm-568 54h90l9 6 2 12-6 9-7 2h-85l-12-11 2-11zm463 49l26 3 28 18 12 21 2 29-11 28-16 15-16 7-10 2-26-2-14-6-14-12-11-17-4-15 3-30 8-15 11-12 17-10zm206 0l23 2 19 9 18 18 8 20v23l-4 15-9 15-16 13-23 8h-18l-26-10-14-14-8-14-4-19 2-22 7-15 16-17 14-8zm-104 105l26 2 21 11 11 12 8 15 4 25-4 17-9 17-11 11-14 8-13 4h-23l-26-12-11-11-8-14-5-19 2-21 7-16 14-16 14-9zm-672 20l38 1 34 10 31 19 23 22 16 24 12 33 3 17v36l-11 39-26 40-29 24-36 16-29 6h-25l-32-7-31-14-33-28-22-34-11-35-2-37 9-40 19-35 30-30 35-19zm886 97l8 1 4 6v118l-7 4-9-2-4-6v-114zm0 144l8 1 5 11-2 14-4 3h-9l-6-7-1-11 3-7zm-209 77l37 4 26 9 27 16 24 23 14 20 14 33 4 17 1 30-8 41-17 34-26 28-39 23-41 10-44-3-36-13-35-26-26-36-14-42-1-41 11-40 20-33 28-27 40-20zm-666 184l31 7 21 17 11 22 2 25-5 16-10 16-14 12-14 6-15 3-23-3-15-7-15-14-7-12-5-18v-15l5-18 7-12 16-15zm-111 105l33 3 13 7 13 12 11 22 1 31-9 21-11 12-26 13-33-1-18-9-12-12-12-26v-24l3-10 9-16 11-11 13-8zm206 0h22l27 12 11 11 9 16 3 31-4 15-10 16-26 18-14 3-22-1-25-13-11-12-8-16-2-10 2-28 8-16 13-14 13-8zm-98 103l24 3 21 11 15 17 8 24v16l-8 22-11 14-11 8-17 7-18 2-20-5-17-10-14-17-5-13-2-24 3-13 4-10 13-16 15-10zm581 6l18 2 20 15 7 13 1 17-7 18-19 15-22 2-19-8-12-17-3-12 1-13 5-12 11-12zm-518 206l63 2 7 14v51l-5 12-10 3-60-2-7-10v-56l4-9zm-248 52l9 5 6 56 17 50 18 32 25 31 15 13 2 9-7 7h-6l-9-6-30-33-28-48-15-44-6-38-1-26 4-6zm106 204l28 14 2 13-3 4h-10l-21-12-4-9 3-7z"/>
		<path id="Path 5" class="s3" d="m439 700h24l18 4 25 10 5 5-21-4h-26l-36 9-25 15-27 31-14 39-1 25 3 17 13 32 31 36-26-14-25-26-14-28-6-30 5-41 10-23 11-16 15-15 21-14zm668 319l26 1 28 8 22 12 18 15 16 22 8 18 6 29v20l-9 35-15 25-22 21-26 14 25-26 14-24 9-33-1-29-6-22-13-24-15-17-20-15-27-11-22-4h-23l-23 5 15-11z"/>
	</g>
</svg>